# xmcd
#
# Track frame offsets:
#	150
#	20810
#	37585
#	53092
#	71540
#	89007
#	102807
#	118540
#	135292
#	152177
#	165895
#	181522
#	196852
#	208567
#	224932
#	239770
#	244495
#	249220
#	253945
#	258670
#	263395
#	268120
#	272845
#	277570
#	282295
#	287020
#	291745
#	296470
#	301195
#	305920
#	310644
#	313119
#	315594
#	318069
#	320544
#	323019
#	325494
#	327969
#	330444
#	332919
#	335394
#	337869
#	340344
#	342819
#	345294
#
# Disc length: 4634 seconds
# Revision: 0
# Processed by: cddbd v1.5.2PL0 Copyright (c) Steve Scherf et al.
# Submitted via: dBpowerAMP V12.0
#
DISCID=a512182d
DTITLE=Peter Northcote - Guitar In The Raw
DYEAR=1997
DGENRE=Production Music
TTITLE0=Slide On Down
TTITLE1=River Dancer
TTITLE2=Backyard
TTITLE3=Seattle Dance
TTITLE4=Harmonics
TTITLE5=Steamin'
TTITLE6=Light Stream
TTITLE7=Bring It On Home
TTITLE8=Surreal Life
TTITLE9=Hot Funky Peppers
TTITLE10=Freedom Road
TTITLE11=Folk Story
TTITLE12=Bon Jovial
TTITLE13=Love's Found
TTITLE14=Fair Pickin'
TTITLE15=Slide On Down
TTITLE16=River Danger
TTITLE17=Backyard
TTITLE18=Seattle Dance
TTITLE19=Harmonics
TTITLE20=Steamin'
TTITLE21=Light Stream
TTITLE22=Bring It On Home
TTITLE23=Surreal Life
TTITLE24=Hot Funky Peppers
TTITLE25=Freedom Road
TTITLE26=Folk Story
TTITLE27=Bon Jovial
TTITLE28=Love's Found
TTITLE29=Fair Pickin'
TTITLE30=Slide On Down
TTITLE31=River Dancer
TTITLE32=Backyard
TTITLE33=Seattle Dance
TTITLE34=Harmonics
TTITLE35=Steamin'
TTITLE36=Light Stream
TTITLE37=Bring It On Home
TTITLE38=Surreal Life
TTITLE39=Hot Funky Peppers
TTITLE40=Freedom Road
TTITLE41=Folk Story
TTITLE42=Bon Jovial
TTITLE43=Love's Found
TTITLE44=Fair Pickin'
EXTD=
EXTT0=
EXTT1=
EXTT2=
EXTT3=
EXTT4=
EXTT5=
EXTT6=
EXTT7=
EXTT8=
EXTT9=
EXTT10=
EXTT11=
EXTT12=
EXTT13=
EXTT14=
EXTT15=
EXTT16=
EXTT17=
EXTT18=
EXTT19=
EXTT20=
EXTT21=
EXTT22=
EXTT23=
EXTT24=
EXTT25=
EXTT26=
EXTT27=
EXTT28=
EXTT29=
EXTT30=
EXTT31=
EXTT32=
EXTT33=
EXTT34=
EXTT35=
EXTT36=
EXTT37=
EXTT38=
EXTT39=
EXTT40=
EXTT41=
EXTT42=
EXTT43=
EXTT44=
PLAYORDER=
